# xmcd
#
# Track frame offsets: 
#        150
#        20872
#        77586
#        142991
#        160944
#        184312
#        211799
#
# Disc length: 3208 seconds
#
# Revision: 0
# Processed by: cddbd v1.5.2PL0 Copyright (c) Steve Scherf et al.
# Submitted via: ExactAudioCopy v0.99pb3
#
DISCID=580c8607
DTITLE=Samarpan - One Melody Vol.5: Karma
DYEAR=1900
DGENRE=
TTITLE0=Music: The Way It Wants to Go
TTITLE1=Both: Through the Eyes of Truth
TTITLE2=Both: The Most Powerful Medicine
TTITLE3=Words: Karma
TTITLE4=Music: Good Karma
TTITLE5=Both: You Asked to Wake Up
TTITLE6=Music: God's Answer
EXTD=
EXTT0=
EXTT1=
EXTT2=
EXTT3=
EXTT4=
EXTT5=
EXTT6=
PLAYORDER=
